<svg width="32" height="32" viewBox="0 0 32 32" fill="none" xmlns="http://www.w3.org/2000/svg">
  <!-- HRLeave Platform - Blue Theme -->
  <style>
    @media (prefers-color-scheme: dark) {
      .bg { fill: #0a0a1a; }
      .gradient-start { stop-color: #2563eb; }
      .gradient-end { stop-color: #0ea5e9; }
      .icon { fill: #ffffff; }
      .accent { fill: #60a5fa; }
    }
    @media (prefers-color-scheme: light) {
      .bg { fill: #ffffff; }
      .gradient-start { stop-color: #2563eb; }
      .gradient-end { stop-color: #60a5fa; }
      .icon { fill: #ffffff; }
      .accent { fill: #93c5fd; }
    }
  </style>
  
  <defs>
    <!-- Main gradient matching your theme -->
    <linearGradient id="mainGradient" x1="0%" y1="0%" x2="100%" y2="100%">
      <stop offset="0%" class="gradient-start"/>
      <stop offset="100%" class="gradient-end"/>
    </linearGradient>
    
    <!-- Subtle background gradient -->
    <linearGradient id="bgGradient" x1="0%" y1="0%" x2="100%" y2="100%">
      <stop offset="0%" style="stop-color:#2563eb;stop-opacity:0.08"/>
      <stop offset="100%" style="stop-color:#60a5fa;stop-opacity:0.12"/>
    </linearGradient>
  </defs>
  
  <!-- Background -->
  <rect width="32" height="32" rx="8" class="bg"/>
  <rect width="32" height="32" rx="8" fill="url(#bgGradient)"/>
  
  <!-- Office building with gradient -->
  <g transform="translate(6, 5)">
    <!-- Main building shape with gradient -->
    <rect x="3" y="3" width="14" height="19" rx="1.5" fill="url(#mainGradient)"/>
    
    <!-- Windows (modern grid layout) -->
    <g class="icon" opacity="0.95">
      <!-- Top row -->
      <rect x="5.5" y="5.5" width="2.5" height="2" rx="0.5"/>
      <rect x="9" y="5.5" width="2.5" height="2" rx="0.5"/>
      <rect x="12.5" y="5.5" width="2.5" height="2" rx="0.5"/>
      
      <!-- Middle row -->
      <rect x="5.5" y="9" width="2.5" height="2" rx="0.5"/>
      <rect x="9" y="9" width="2.5" height="2" rx="0.5"/>
      <rect x="12.5" y="9" width="2.5" height="2" rx="0.5"/>
      
      <!-- Bottom row -->
      <rect x="5.5" y="12.5" width="2.5" height="2" rx="0.5"/>
      <rect x="9" y="12.5" width="2.5" height="2" rx="0.5"/>
      <rect x="12.5" y="12.5" width="2.5" height="2" rx="0.5"/>
      
      <!-- Door entrance -->
      <rect x="8" y="17" width="4" height="5" rx="0.5" opacity="0.85"/>
    </g>
  </g>
</svg>
