<svg width="32" height="32" viewBox="0 0 32 32" fill="none" xmlns="http://www.w3.org/2000/svg">
  <!-- Professional HR Platform Theme - Deep Navy & Sky Blue -->
  <style>
    @media (prefers-color-scheme: dark) {
      .bg { fill: #0d1e38; }
      .building { fill: #e8f0fe; }
      .window { fill: #3b82f6; }
      .accent { fill: #60a5fa; }
      .glow { fill: #93c5fd; }
    }
    @media (prefers-color-scheme: light) {
      .bg { fill: #ffffff; }
      .building { fill: #0c1a2e; }
      .window { fill: #2563eb; }
      .accent { fill: #3b82f6; }
      .glow { fill: #60a5fa; }
    }
  </style>
  
  <!-- Background with gradient -->
  <defs>
    <linearGradient id="bgGrad" x1="0%" y1="0%" x2="100%" y2="100%">
      <stop offset="0%" style="stop-color:#2563eb;stop-opacity:0.05" />
      <stop offset="100%" style="stop-color:#60a5fa;stop-opacity:0.1" />
    </linearGradient>
  </defs>
  
  <rect width="32" height="32" rx="7" class="bg"/>
  <rect width="32" height="32" rx="7" fill="url(#bgGrad)"/>
  
  <!-- Office building icon -->
  <g transform="translate(8, 7)">
    <!-- Main building -->
    <path d="M2 2 L14 2 L14 18 L2 18 Z" class="building" opacity="0.95"/>
    
    <!-- Windows grid (3x3) with enhanced glow -->
    <rect x="4" y="4" width="1.5" height="1.5" rx="0.4" class="window" opacity="0.9"/>
    <rect x="7.25" y="4" width="1.5" height="1.5" rx="0.4" class="window" opacity="0.9"/>
    <rect x="10.5" y="4" width="1.5" height="1.5" rx="0.4" class="window" opacity="0.9"/>
    
    <rect x="4" y="7" width="1.5" height="1.5" rx="0.4" class="window" opacity="0.9"/>
    <rect x="7.25" y="7" width="1.5" height="1.5" rx="0.4" class="window" opacity="0.9"/>
    <rect x="10.5" y="7" width="1.5" height="1.5" rx="0.4" class="window" opacity="0.9"/>
    
    <rect x="4" y="10" width="1.5" height="1.5" rx="0.4" class="glow" opacity="0.7"/>
    <rect x="7.25" y="10" width="1.5" height="1.5" rx="0.4" class="glow" opacity="0.7"/>
    <rect x="10.5" y="10" width="1.5" height="1.5" rx="0.4" class="glow" opacity="0.7"/>
    
    <!-- Door with gradient -->
    <rect x="6.5" y="14" width="3" height="4" rx="0.5" class="accent" opacity="0.85"/>
    
    <!-- Roof accent line -->
    <rect x="1.5" y="1" width="13" height="1.2" rx="0.6" class="accent" opacity="0.8"/>
  </g>
</svg>
