<svg width="32" height="32" viewBox="0 0 32 32" fill="none" xmlns="http://www.w3.org/2000/svg">
  <style>
    @media (prefers-color-scheme: dark) {
      .bg { fill: #0a0a1a; }
      .gradient-start { stop-color: #2563eb; }
      .gradient-end { stop-color: #0ea5e9; }
      .icon { fill: #ffffff; }
    }
    @media (prefers-color-scheme: light) {
      .bg { fill: #ffffff; }
      .gradient-start { stop-color: #2563eb; }
      .gradient-end { stop-color: #60a5fa; }
      .icon { fill: #ffffff; }
    }
  </style>
  
  <defs>
    <linearGradient id="grad32" x1="0%" y1="0%" x2="100%" y2="100%">
      <stop offset="0%" class="gradient-start"/>
      <stop offset="100%" class="gradient-end"/>
    </linearGradient>
    <linearGradient id="bg32" x1="0%" y1="0%" x2="100%" y2="100%">
      <stop offset="0%" style="stop-color:#2563eb;stop-opacity:0.08"/>
      <stop offset="100%" style="stop-color:#60a5fa;stop-opacity:0.12"/>
    </linearGradient>
  </defs>
  
  <!-- Background -->
  <rect width="32" height="32" rx="8" class="bg"/>
  <rect width="32" height="32" rx="8" fill="url(#bg32)"/>
  
  <!-- Building -->
  <rect x="9" y="8" width="14" height="19" rx="1.5" fill="url(#grad32)"/>
  
  <!-- Windows (3x3 grid) -->
  <g class="icon" opacity="0.95">
    <rect x="11.5" y="10.5" width="2.5" height="2" rx="0.5"/>
    <rect x="15" y="10.5" width="2.5" height="2" rx="0.5"/>
    <rect x="18.5" y="10.5" width="2.5" height="2" rx="0.5"/>
    
    <rect x="11.5" y="14" width="2.5" height="2" rx="0.5"/>
    <rect x="15" y="14" width="2.5" height="2" rx="0.5"/>
    <rect x="18.5" y="14" width="2.5" height="2" rx="0.5"/>
    
    <rect x="11.5" y="17.5" width="2.5" height="2" rx="0.5"/>
    <rect x="15" y="17.5" width="2.5" height="2" rx="0.5"/>
    <rect x="18.5" y="17.5" width="2.5" height="2" rx="0.5"/>
    
    <!-- Door -->
    <rect x="14" y="22" width="4" height="5" rx="0.5" opacity="0.85"/>
  </g>
</svg>
